# xmcd
#
# Track frame offsets: 
#        150
#        1984
#        33549
#        44746
#        56571
#        57579
#        61453
#        63223
#        82016
#        91535
#        105807
#        111562
#        131971
#        143572
#        159014
#        171293
#        182051
#        258635
#        261029
#        265836
#        273445
#
# Disc length: 4070 seconds
#
# Revision: 0
# Processed by: cddbd v1.5.2PL0 Copyright (c) Steve Scherf et al.
# Submitted via: ExactAudioCopy v0.95b4
#
DISCID=2a0fe415
DTITLE=The Beatles  - AB  Road - Complete Purple Chick Set v1.1 Jan.29
DTITLE=Various Artist - D4  FLAC
DYEAR=1900
DGENRE=
TTITLE0=Dialogue
TTITLE1=Dig It 29.39
TTITLE2=Besame Mucho 29.40
TTITLE3=Three Cool Cats 29.41
TTITLE4=Sorry Miss Molly 29.42
TTITLE5=I Got To Find My Baby 29.43
TTITLE6=Some Other Guy 29.44
TTITLE7=One After 909 29.45
TTITLE8=Honky Tonk 29.46
TTITLE9=One After 909 29.47
TTITLE10=Vacation Time 29.48
TTITLE11=Cannonball - Not Fade Away - Hey Little Girl 29.49
TTITLE12=Maybe Baby 29.50
TTITLE13=Peggy Sue Got Married - Thinking Of Linking 29.51
TTITLE14=Crying, Waiting, Hoping 29.52
TTITLE15=Mailman, Bring Me No More Blues 29.53
TTITLE16=Teddy Boy 29.54
TTITLE17=Bring Your Own Band 29.55
TTITLE18=Lotta Lovin' 29.56
TTITLE19=Two Of Us 29.57
TTITLE20=Two Of Us 29.58
EXTD=
EXTT0=
EXTT1=
EXTT2=
EXTT3=
EXTT4=
EXTT5=
EXTT6=
EXTT7=
EXTT8=
EXTT9=
EXTT10=
EXTT11=
EXTT12=
EXTT13=
EXTT14=
EXTT15=
EXTT16=
EXTT17=
EXTT18=
EXTT19=
EXTT20=
PLAYORDER=
